<svg height='100px' width='100px' opacity=".75" fill="#fff" xmlns="http://www.w3.org/2000/svg" xmlns:xlink="http://www.w3.org/1999/xlink" version="1.1" x="0px" y="0px" viewBox="0 0 100 100" enable-background="new 0 0 100 100" xml:space="preserve"><path fill="#fff" d="M283.656,58.218c0.554-2.837,1.206-5.611,2.014-8.384c1.386-4.789,2.631-9.772,5.04-14.173  c2.433-4.441,7.198-7.611,11.731-9.644c2.105-0.943-4.961-1.433-9.522-3.385c-6.208-2.654-3.981-5.833-7.683-11.283  c0,0-2.079-1.852,2.418-3.604c4.51-1.755,6.592-7.968,5.364-11.619c-1.235-3.651-0.999-3.739-0.999-3.739s5.645-4.653,7.685-6.075  c2.035-1.421,4.881-6.447,4.453-12.086c-0.422-5.58-2.327-5.612-2.377-5.612c0,0,2.135,2.718,1.286,5.417  c-0.853,2.703-1.472,7.679-2.843,8.347c0.07-0.243,5.078-16.59-6.214-22.378c0,0,6.264,6.497,5.595,13.465  c-0.664,6.97-2.035,8.014-2.035,8.014s-1.003-2.75-8.44-3.508c0,0-4.317-6.735-5.408-7.206c-1.091-0.478,3.085,4.978,2.421,5.972  c-0.663,0.997-6.829,1.518-13.087-2.039c0,0,2.748,4.125,10.902,5.025c8.156,0.902,12.942,2.227,12.279,4.555  c-0.664,2.324-0.664,3.173-5.83,5.78c-5.084,2.565-7.42,4.4-7.496,4.459c0.023-0.071,0.593-1.702,0-1.563  c-0.607,0.142-1.321-0.525-2.221,2.088c-0.899,2.607-2.232,0-6.786,4.5c0,0-1.327-0.566-3.268,0  c-1.946,0.566-1.421-2.465-0.241-5.55c1.174-3.032,5.506-7.903,5.645-8.054c-0.142,0.062-3.967,1.808-8.107,7.251  c0,0-2.323,0.188-1.469-1.141c0.855-1.324,5.836-17.021,5.645-19.862c-0.188-2.847-1.135,4.645-3.748,7.632  c-2.604,2.987-1.94-3.035-1.896,4.123c0.051,7.163-2.468,7.163-2.609,7.163c-0.139,0-3.698,0.283-4.12-2.468  c-0.428-2.722,1.245-23.567,1.277-23.983c-0.086,0.204-2.899,6.856-3.409,15.025c-0.528,8.297,0.186,8.53-0.858,8.722  c-1.041,0.188-6.349-0.855-6.207-3.462c0.139-2.605-0.87-14.774-1.124-16.324c0,0-0.637,14.891-0.637,15.608  c0,0.713-2.846,0.631-3.247-1.982c-0.396-2.613,0.401-4.435,0.401-4.435s-4.441,3.565,0.153,8.396  c4.598,4.831,18.537,7.921,19.569,9.112c1.029,1.188-1.428,0.475-0.955,4.276c0.483,3.801-1.104,3.724-1.104,3.724  s-4.677,0.794-4.04,5.624c0,0-4.361,4.754-6.021,6.102c-1.663,1.345-2.377,1.345-2.136,2.056c0,0-5.016,2.76,0.045,6.432  c0,0,0.613,2.651,4.432,2.516c3.822-0.13,2.483-0.891,3.209-1.056c0.729-0.166,10.009-0.467,10.654,0.047  c0.644,0.513,4.981,16.231,7.157,19.74c2.183,3.51-0.565,2.466,0.378,9.387C278.221,61.085,283.113,61.031,283.656,58.218z   M281.818-0.771c0.063,4.063-0.761,2.342-1.103,2.002c-0.333-0.339-0.844-0.392-0.844-0.392  C281.111-0.517,281.818-0.771,281.818-0.771z"></path><path fill="#fff" d="M78.5,5.25c-0.229-0.102-1.007,3.331-1.036,4.69c-0.036,1.359-1.234,1.752-1.234,1.752  c0.459-8.937-0.578-11.493-0.938-11.69c-0.354-0.194-0.548,8.254-1.094,11.201c-0.554,2.947-2.89,3.951-3.725,3.856  c-0.849-0.098-0.718,1.326-0.908-6.153c-0.193-7.479-1.687-7.253-1.687-7.253c0.229,0.972-0.516,11.267-0.774,13.957  c-0.266,2.685-3.528,5.76-3.528,5.76c0.199-3.01-0.715-7.154-1.034-7.867c-0.325-0.712-0.619-0.065-0.619-0.065  c0.554,4.759,0.16,8.224-1.258,10.783c-1.416,2.538-10.956,5.899-11.103,5.954c3.329-8.126,1.354-8.48,1.354-8.48  c0.553,2.75-1.618,5.986-2.917,8.224c-1.291,2.231-2.811,1.779-4.008-1.135c-1.198-2.915-1.751-10.393-1.751-10.393  c-1.228,5.018,0.813,12.658,1.198,13.888c0.39,1.23,0,1.556-0.772,1.556c-0.78,0-1.82,0.682-2.368,1.066  c-0.548,0.393-1.907-0.06-1.907-0.06c-0.874-1.299-2.271-1.138-2.494-1.168c-0.227-0.033-1.135-2.527-1.784-4.147  c-0.644-1.615-0.519-5.081-0.519-5.081c0.715-2.104,1.654-6.183,1.847-7.833c0.199-1.651,1.07-3.239,1.07-3.239  c3.364-3.564,4.857-7.252,4.562-6.8c-0.284,0.453-3.49,4.306-3.684,4.017c-0.191-0.289,0.874-6.407,0.483-6.702  c-0.385-0.289-3.045,8.319-3.465,9.097c-0.423,0.774-1.782-0.551-1.782-0.551C29.417,8.907,31.555,0.164,30.78,0.164  c-0.783,0-1.364,5.28-1.04,9.132c0.325,3.853,2.008,6.41,2.297,8.77c0.295,2.366-0.193,4.243-1.029,4.955  c-0.848,0.715-3.688-1.621-4.052-1.943c-0.354-0.322,0.063-1.261-0.035-1.228c-0.096,0.027-0.579,0.581-0.579,0.581  s-0.325-0.453-0.551-0.614c-0.229-0.164,0.095-0.909,0.325-1.751c0.227-0.841-0.903,0.682-0.903,0.682  c-2.077-1.779,0.161-12.139-1.299-6.541c-1.457,5.602,0.614,8.516,0.614,8.516c0.227,3.465,0.486,1.651,1.454,4.759  c0.974,3.107,5.476,5.891,6.025,6.505c0.554,0.616,1.395,2.786,1.263,2.946c-0.128,0.161-3.206-1.359-5.182-1.877  c-1.973-0.516-3.236-2.134-5.471-2.396c-2.232-0.259-1.358,1.653-1.358,1.653c0.019,0,0.884,0.03,4.278,5.468  c3.43,5.506,4.073,2.622,3.749,3.754c-0.319,1.135,0.548,2.979,0.548,2.979c-0.253,0.328-0.709,2.333-0.709,2.333  c-0.777,0.385-2.848,3.149-2.848,3.149c-2.328,1.214-2.137,1.902-2.137,1.902s-0.39,0.322-0.78,0.644  c-0.385,0.326-0.061,1.555-0.061,1.555c-0.649,1.555,0.256,2.139,0.256,2.139c1.493,0.322,1.362,0.906,1.362,0.906  c1.684,3.561,5.891,1.553,5.891,1.553c3.17-0.26,4.014,0.649,2.526,3.626c-1.492,2.977-2.267,13.662,1.615,18.584  c3.886,4.92,5.891,8.739,9.198,16.38c3.304,7.64,7.512-2.849,8.027-6.993c0.519-4.139,4.984-4.205,7.379-11.851  c2.4-7.637-0.192-15.018-3.756-18.903c-3.561-3.886-4.886-15.409-4.886-15.409c0.748-0.295,1.618-2.167,1.618-2.167  c6.77-3.498,2.199-11.301,2.199-11.301c8.453-3.594,14.862-10.554,15.613-11.299c0.742-0.745,1.837-1.389,3.877-3.397  c2.044-2.008,3.989-2.396,4.47-5.053C79.18,8.257,78.722,5.346,78.5,5.25z M26.756,23.237c0,0,1.334,0.69,2.893,2.158  c1.552,1.468,1.681,3.367,1.681,3.367C27.534,27.25,26.756,23.237,26.756,23.237z M50.707,33.294  c-0.99,0.69-1.899,2.546-1.899,2.546c-0.256-0.041-0.903,0.262-1.206,0.306c-0.306,0.041-0.903-0.39-0.903-0.39v-0.604  c0.775-0.824,5.439-3.367,5.439-3.367S51.7,32.604,50.707,33.294z"></path></svg>