<svg xmlns="http://www.w3.org/2000/svg" version="1.0" width="1500.000000pt" height="1500.000000pt" viewBox="0 0 1500.000000 1500.000000" preserveAspectRatio="xMidYMid meet">
<metadata fill="#ffffff">
Created by potrace 1.16, written by Peter Selinger 2001-2019
</metadata>
<g transform="translate(0.000000,1500.000000) scale(0.100000,-0.100000)" fill="#ffffff" stroke="none">
<path d="M3368 11948 c-963 -1206 -1523 -2035 -1918 -2840 -58 -119 -112 -223 -119 -232 -7 -8 -10 -19 -7 -24 7 -12 231 -140 336 -192 47 -23 111 -58 143 -77 32 -19 60 -34 62 -31 2 2 35 86 74 188 270 714 606 1369 1024 1995 134 201 360 502 365 487 6 -18 -25 -484 -54 -807 -26 -300 -72 -727 -104 -970 -11 -82 -27 -202 -35 -265 -21 -159 -72 -510 -96 -660 -30 -186 -116 -705 -131 -785 l-13 -70 -145 -78 c-425 -230 -872 -528 -1133 -757 -5 -4 8 -56 28 -116 20 -60 47 -154 59 -208 13 -55 27 -101 32 -103 5 -1 158 104 339 233 363 259 702 490 709 483 6 -6 -105 -522 -184 -857 -33 -141 -58 -258 -55 -260 2 -3 73 20 157 51 84 30 230 83 323 116 l170 62 24 102 c49 220 142 694 182 937 23 140 47 260 53 267 26 27 471 271 479 263 3 -3 -3 -79 -14 -170 -10 -91 -26 -230 -34 -310 -20 -187 -76 -842 -73 -846 2 -1 81 28 175 66 95 38 209 81 254 97 l81 28 -6 105 c-3 58 -2 200 4 315 5 116 14 345 20 510 5 165 13 327 16 361 l6 61 172 71 c228 95 491 192 520 192 6 0 -6 -17 -25 -37 -122 -130 -270 -375 -340 -565 -61 -167 -101 -341 -119 -517 -12 -128 -13 -371 -1 -371 5 0 87 29 183 66 138 52 179 72 201 97 59 68 135 165 191 245 31 45 59 82 61 82 2 0 -2 -21 -10 -47 -32 -110 -61 -233 -55 -233 4 0 76 25 161 55 85 31 159 57 164 59 6 2 31 36 55 75 25 40 98 144 163 233 65 89 171 237 234 329 64 93 119 167 121 164 7 -6 -33 -149 -363 -1305 -76 -265 -87 -309 -83 -322 2 -5 41 19 88 53 235 171 518 457 658 666 73 108 208 421 247 573 9 36 18 66 20 68 1 2 20 -9 41 -23 33 -22 47 -26 89 -23 67 6 116 31 187 97 199 183 317 512 335 926 l6 141 48 32 c27 18 49 29 49 24 0 -4 -9 -40 -20 -79 -104 -377 -38 -686 168 -781 100 -45 228 -18 379 80 147 95 246 217 367 449 95 182 152 365 181 580 5 38 13 51 50 83 25 20 45 33 45 28 0 -6 -7 -45 -16 -88 -20 -95 -14 -303 11 -399 47 -182 145 -275 290 -275 76 0 126 17 216 76 151 99 287 294 399 572 44 111 48 117 90 138 25 13 46 21 48 19 2 -1 -24 -111 -58 -244 -57 -224 -80 -341 -68 -341 3 0 56 24 119 54 63 29 138 62 167 72 30 10 57 25 62 34 4 8 24 81 44 162 34 140 102 388 108 393 8 6 229 57 233 54 2 -2 0 -24 -5 -49 -12 -64 -35 -409 -27 -416 3 -3 90 20 194 52 138 43 195 66 213 84 14 14 87 101 163 193 76 92 141 167 145 167 4 0 7 -47 7 -104 0 -58 3 -107 6 -111 4 -3 31 4 60 16 30 12 101 36 159 53 l104 31 78 89 c43 48 117 143 165 209 47 67 83 114 80 104 -14 -39 -77 -279 -77 -292 0 -12 5 -12 28 -4 15 6 72 21 127 34 65 16 104 30 112 42 7 10 47 65 88 123 42 58 96 134 120 169 l45 65 0 -111 c0 -77 4 -114 13 -121 14 -12 107 -47 150 -56 23 -5 35 1 78 41 186 174 415 492 635 881 96 170 135 225 150 209 2 -2 -7 -35 -22 -73 -48 -128 -115 -338 -143 -454 -46 -184 -45 -169 -14 -181 43 -17 214 -51 229 -45 17 6 196 247 311 419 111 165 260 463 241 482 -1 2 -28 -33 -58 -78 -122 -182 -355 -472 -389 -485 -11 -4 5 116 29 209 23 90 71 220 114 308 14 30 26 62 26 71 0 9 -26 64 -58 122 l-57 106 -60 -44 c-33 -24 -65 -44 -71 -44 -7 0 -9 30 -7 88 5 102 -15 231 -37 243 -8 4 -58 28 -111 52 -115 53 -107 55 -254 -55 -258 -193 -391 -389 -424 -630 -14 -100 -5 -122 67 -174 105 -76 143 -86 218 -57 14 5 10 -7 -16 -53 -56 -100 -224 -347 -228 -336 -2 6 10 65 27 131 17 66 31 126 31 134 0 8 -31 28 -75 47 -41 18 -105 50 -141 71 -36 22 -70 39 -74 39 -4 0 -13 -21 -20 -47 -23 -94 -113 -288 -186 -404 -41 -65 -79 -121 -84 -124 -4 -3 -2 23 6 57 23 96 64 304 64 320 0 10 -13 17 -37 21 -21 3 -53 9 -71 12 l-32 8 -39 -85 c-50 -109 -106 -199 -192 -313 -71 -94 -255 -292 -264 -284 -2 3 2 47 9 98 16 105 2 81 196 316 144 174 188 231 283 372 105 156 100 139 73 224 -13 41 -29 88 -37 104 -11 25 -74 132 -85 143 -7 9 -107 -70 -192 -152 -117 -113 -183 -194 -262 -321 -133 -213 -205 -393 -264 -657 -8 -37 -35 -66 -242 -264 l-177 -169 8 45 c33 211 97 425 190 635 87 198 127 297 121 302 -3 3 -80 -24 -173 -59 -134 -51 -170 -69 -180 -88 -31 -65 -96 -226 -130 -327 l-38 -113 -60 -32 c-33 -17 -93 -51 -134 -75 -86 -51 -83 -68 -22 152 35 126 66 274 58 281 -1 1 -42 -15 -92 -35 -49 -21 -132 -53 -183 -71 l-92 -33 -17 -56 c-9 -31 -42 -152 -72 -269 l-56 -213 -44 -26 -44 -26 7 44 c45 279 63 636 46 912 -24 399 -131 878 -298 1332 -69 189 -98 255 -109 255 -18 0 -242 -295 -357 -470 -172 -261 -387 -662 -493 -920 -49 -117 -98 -289 -87 -300 17 -14 348 -120 355 -112 3 4 17 50 29 102 43 180 123 398 238 645 61 132 205 409 225 433 33 41 214 -715 237 -990 15 -184 0 -459 -37 -668 -72 -411 -293 -814 -412 -751 -40 22 -42 166 -5 301 31 109 156 288 234 331 22 12 40 26 40 30 0 5 -13 68 -30 141 -16 73 -32 152 -36 176 -4 23 -10 45 -14 47 -8 5 -107 -74 -250 -200 -117 -104 -231 -194 -319 -252 l-75 -49 -40 42 c-50 51 -104 68 -198 61 -83 -5 -164 -43 -210 -97 -32 -37 -68 -117 -68 -151 0 -12 -22 -5 -99 33 -157 76 -135 82 -297 -79 -120 -120 -271 -253 -286 -253 -3 0 -19 22 -35 49 -80 128 -244 166 -393 91 -120 -60 -209 -170 -226 -277 -4 -24 -11 -43 -15 -43 -5 0 -54 23 -109 50 -55 28 -103 50 -107 50 -5 0 -28 -37 -52 -83 -138 -258 -300 -541 -356 -622 -23 -33 -123 -177 -222 -320 -99 -143 -197 -286 -218 -318 -21 -31 -40 -56 -42 -54 -2 3 12 71 31 153 19 82 38 172 42 200 l6 50 -73 16 c-41 9 -75 13 -77 8 -24 -63 -135 -259 -192 -340 -70 -98 -343 -390 -354 -379 -7 7 27 146 59 244 41 121 135 310 206 409 80 111 148 182 271 279 l97 77 -6 188 c-3 103 -6 188 -7 189 -3 3 -234 -39 -321 -59 -163 -37 -377 -98 -559 -159 -98 -33 -181 -57 -184 -55 -15 16 92 1277 143 1681 31 244 74 519 116 753 6 35 9 65 7 68 -6 6 -170 -52 -220 -77 -34 -18 -37 -23 -57 -106 -32 -141 -58 -281 -136 -753 -110 -661 -148 -915 -225 -1490 -17 -129 -32 -236 -33 -237 -1 -1 -101 -43 -222 -93 -121 -50 -226 -94 -232 -97 -18 -7 -17 24 7 207 91 708 150 1674 150 2470 0 611 -25 1072 -65 1234 -18 71 -85 276 -90 276 -2 0 -73 -87 -157 -192z m9407 -886 c-10 -42 -31 -114 -47 -158 l-29 -82 -72 -30 c-40 -17 -74 -26 -75 -21 -5 13 83 192 121 249 50 74 111 143 115 131 2 -6 -4 -46 -13 -89z m-4875 -1907 c0 -30 36 -82 67 -99 16 -8 50 -17 76 -21 l47 -7 -6 -37 c-33 -198 -127 -412 -228 -517 -54 -56 -66 -64 -98 -64 -58 0 -72 36 -73 180 0 108 2 122 42 246 54 165 150 374 163 354 6 -8 10 -24 10 -35z m-1276 -530 c61 -64 156 -82 261 -50 27 8 51 12 54 10 9 -10 -29 -209 -59 -304 -44 -143 -96 -211 -162 -211 -36 0 -79 51 -103 125 l-23 66 -91 -92 c-50 -51 -93 -90 -96 -87 -3 2 9 56 26 119 17 63 51 200 75 304 63 269 55 247 67 201 5 -22 27 -56 51 -81z m-235 -888 c3 -213 -80 -450 -223 -640 -49 -65 -106 -127 -106 -116 0 3 29 92 65 199 56 166 98 301 232 745 l18 60 6 -75 c4 -41 7 -119 8 -173z" fill="#ffffff"/>
<path d="M12870 9240 c-493 -83 -988 -206 -1775 -441 -335 -100 -514 -157 -625 -199 -41 -15 -140 -49 -220 -75 -644 -209 -1485 -563 -2245 -945 -756 -381 -1421 -777 -2125 -1268 -607 -424 -1325 -1008 -1631 -1327 -228 -239 -261 -271 -256 -245 3 14 15 68 27 120 32 147 117 569 126 624 5 40 4 48 -7 44 -12 -5 -451 -199 -456 -202 0 -1 -22 -113 -48 -251 -39 -209 -193 -949 -291 -1395 -33 -153 -116 -464 -153 -572 -16 -49 -26 -88 -21 -88 5 0 87 36 182 81 95 44 212 99 261 121 62 29 89 47 92 62 3 12 43 215 90 451 47 237 89 439 94 450 15 35 228 289 258 308 4 3 7 -225 5 -505 -2 -281 -1 -517 2 -524 4 -10 45 0 178 47 95 33 176 66 180 74 5 7 76 105 159 217 83 111 189 264 235 340 47 75 90 141 97 146 9 8 12 -10 13 -76 3 -144 65 -261 168 -314 157 -82 432 63 600 315 76 114 158 288 191 405 15 53 29 103 31 110 2 7 12 15 21 19 10 3 44 16 75 28 l57 22 16 -71 c34 -153 120 -414 145 -440 13 -13 114 70 236 195 115 119 155 172 267 353 39 64 67 102 67 90 0 -11 -7 -65 -15 -120 -14 -96 -20 -234 -10 -234 3 0 63 29 133 64 l127 64 29 78 c37 98 134 322 169 389 l26 50 1 -95 c0 -120 13 -165 59 -211 27 -28 48 -39 82 -44 105 -16 189 38 338 217 58 70 109 127 114 127 4 1 7 -46 7 -104 0 -58 2 -105 6 -105 16 0 312 125 328 139 28 24 166 198 205 259 33 51 49 67 37 36 -4 -9 -19 -65 -35 -125 l-29 -108 51 19 c260 98 249 92 292 156 134 198 345 474 345 451 0 -4 -18 -78 -39 -165 -42 -171 -56 -242 -47 -242 4 0 50 22 104 48 53 27 123 59 154 72 l57 23 36 151 c19 83 48 191 63 241 l28 90 84 27 c104 32 134 35 126 10 -8 -23 -26 -243 -26 -314 0 -43 4 -58 14 -58 8 0 86 25 174 56 l159 55 41 62 c22 34 77 116 122 181 45 66 107 163 138 215 l57 95 8 -61 c9 -80 36 -141 84 -194 51 -57 102 -79 184 -79 57 0 77 5 140 37 87 43 203 153 267 253 57 87 135 249 162 335 31 99 34 103 110 186 l69 74 -14 -48 c-26 -88 -45 -256 -48 -411 -1 -85 1 -157 5 -161 4 -4 78 22 165 58 l158 64 62 73 c34 40 88 111 120 156 32 45 59 81 61 79 2 -2 -10 -53 -26 -114 -17 -61 -27 -111 -24 -111 34 0 252 45 267 55 11 7 43 50 71 96 29 46 91 147 139 224 102 162 237 396 232 401 -2 2 -35 -31 -73 -73 -104 -115 -251 -263 -323 -324 l-64 -54 7 50 c3 28 11 97 17 155 5 58 14 131 21 163 6 32 8 60 4 64 -12 13 -96 20 -105 9 -5 -6 -31 -56 -59 -111 -79 -157 -263 -391 -384 -487 l-40 -32 7 45 c9 62 81 271 117 344 82 165 198 305 350 427 85 68 90 73 84 102 -4 17 -9 79 -13 139 -3 59 -8 107 -11 107 -12 0 -164 -98 -231 -150 -88 -67 -153 -133 -243 -245 -35 -44 -91 -114 -124 -155 -33 -41 -89 -115 -123 -163 -35 -49 -65 -87 -67 -85 -2 2 2 91 8 198 13 239 -2 605 -31 751 -35 178 -99 355 -194 543 l-60 120 -38 -43 c-225 -253 -515 -729 -692 -1133 -52 -119 -103 -287 -90 -298 13 -11 311 -85 318 -78 3 3 19 55 35 114 39 149 94 300 175 483 74 165 205 413 222 418 16 6 92 -234 108 -342 28 -188 16 -524 -25 -725 -42 -199 -144 -441 -223 -527 -44 -49 -96 -77 -121 -67 -49 19 -42 214 12 320 42 84 119 182 169 218 24 16 43 35 43 40 0 19 -63 271 -70 279 -12 14 -135 -99 -211 -194 -105 -130 -130 -170 -224 -348 -45 -86 -107 -197 -137 -246 -63 -101 -253 -360 -286 -389 -22 -19 -22 -19 -22 1 0 51 45 239 85 358 24 72 73 195 108 275 72 163 82 190 70 190 -17 0 -288 -112 -300 -124 -14 -14 -102 -228 -132 -322 -20 -64 -27 -74 -64 -94 -23 -13 -75 -43 -115 -68 -41 -24 -75 -42 -78 -40 -2 3 14 68 35 146 22 78 43 166 46 197 l7 56 -33 -14 c-19 -8 -93 -39 -166 -68 -110 -45 -133 -57 -138 -78 -11 -43 -123 -228 -246 -404 -66 -94 -168 -243 -227 -329 -59 -87 -110 -157 -113 -158 -4 0 6 54 22 121 15 67 29 142 30 167 4 50 1 52 -91 65 l-35 4 -52 -106 c-29 -58 -83 -149 -120 -201 -67 -92 -298 -339 -308 -328 -8 7 11 84 47 196 40 125 97 197 381 486 l129 131 -12 50 c-17 76 -72 245 -80 245 -13 0 -144 -97 -215 -159 -175 -153 -327 -385 -401 -614 l-36 -115 -127 -149 c-150 -175 -167 -188 -234 -184 -23 1 -47 58 -47 109 0 60 29 217 61 327 45 155 67 236 74 281 l6 41 -113 -58 c-106 -54 -115 -61 -138 -106 -43 -87 -281 -518 -292 -528 -7 -7 -8 -4 -5 10 13 45 46 349 47 422 0 9 -19 4 -57 -13 -93 -40 -203 -106 -203 -121 0 -27 -94 -252 -161 -383 -37 -74 -98 -180 -135 -235 -86 -130 -205 -276 -217 -268 -15 9 -1 258 17 327 9 32 15 60 14 61 -2 2 -64 5 -139 8 -74 4 -142 8 -150 11 -9 4 -25 -14 -49 -56 -20 -35 -54 -75 -80 -95 l-45 -35 -11 84 c-13 92 -42 161 -77 180 -64 35 -186 26 -271 -20 -56 -31 -86 -67 -114 -137 -11 -27 -24 -49 -29 -48 -4 1 -46 16 -92 33 -67 24 -86 28 -92 18 -4 -8 -54 -77 -111 -154 -58 -77 -142 -196 -187 -264 -155 -234 -296 -424 -375 -507 -43 -46 -82 -80 -86 -76 -17 18 -45 334 -44 489 l1 161 -36 -8 c-44 -9 -251 -23 -251 -17 0 5 156 159 211 209 15 13 80 74 145 135 410 385 866 740 1328 1034 64 41 150 96 191 122 719 460 1797 1029 2565 1355 244 104 685 280 845 338 433 157 1048 365 1080 365 8 0 35 28 62 63 85 111 280 341 333 392 l51 50 25 -30 c34 -42 121 -191 140 -242 9 -24 23 -43 30 -43 8 0 127 29 266 64 432 110 1044 237 1351 281 26 4 49 11 52 15 3 5 19 60 35 124 25 95 85 277 115 349 9 23 -1 22 -205 -13z m-7335 -4349 c9 -41 65 -103 119 -132 25 -13 46 -28 46 -34 0 -33 -46 -163 -85 -240 -74 -147 -163 -233 -214 -205 -49 26 -60 184 -22 310 42 141 123 330 141 330 4 0 11 -13 15 -29z" fill="#ffffff"/>
</g>
</svg>